PathFileType	4	(X/Y/Z)	Run_200 02
DataRate	CameraRate	NumFrames	NumMarkers	Units	OrigDataRate	OrigDataStartFrame	OrigNumFrames
100	100	4	42	mm	100	327	128
Frame#	Time	LPSI			RPSI			RTH1			RTH2			RTH3			LTH1			LTH2			LTH3			RTB1			RTB2			RTB3			LTB1			LTB2			LTB3			RCAL			RTOE			RMT5			LCAL			LTOE			LMT5			LACR			RACR			CLAV			C7			RUA1			RUA2			RUA3			RLEL			RMEL			LUA1			LUA2			LUA3			LLEL			LMEL			RFAsuperior			RFAradius			RFAulna			LFAsuperior			LFAradius			LFAulna			RASI			LASI		
		X1	Y1	Z1	X2	Y2	Z2	X3	Y3	Z3	X4	Y4	Z4	X5	Y5	Z5	X6	Y6	Z6	X7	Y7	Z7	X8	Y8	Z8	X9	Y9	Z9	X10	Y10	Z10	X11	Y11	Z11	X12	Y12	Z12	X13	Y13	Z13	X14	Y14	Z14	X15	Y15	Z15	X16	Y16	Z16	X17	Y17	Z17	X18	Y18	Z18	X19	Y19	Z19	X20	Y20	Z20	X21	Y21	Z21	X22	Y22	Z22	X23	Y23	Z23	X24	Y24	Z24	X25	Y25	Z25	X26	Y26	Z26	X27	Y27	Z27	X28	Y28	Z28	X29	Y29	Z29	X30	Y30	Z30	X31	Y31	Z31	X32	Y32	Z32	X33	Y33	Z33	X34	Y34	Z34	X35	Y35	Z35	X36	Y36	Z36	X37	Y37	Z37	X38	Y38	Z38	X39	Y39	Z39	X40	Y40	Z40	X41	Y41	Z41	X42	Y42	Z42	

327	  3.270000	598.479028	1142.556946	-503.830283	602.845064	1136.971258	-419.283688	684.097229	920.632875	-283.054292	703.439752	776.787183	-298.178642	598.946477	694.724522	-315.945792	737.210277	961.126193	-653.470986	830.222214	861.877728	-629.315562	778.071220	710.030789	-628.013427	560.161773	441.629067	-366.534683	466.335985	382.107326	-318.506364	444.813320	278.054747	-374.499350	847.285115	483.285682	-574.911261	782.077771	412.702776	-642.454725	810.458462	279.787457	-572.661019	277.531316	256.711525	-409.936342	415.830713	 74.448157	-383.451929	361.795280	 77.539440	-304.778836	671.887296	148.688130	-554.298196	899.124582	108.963268	-561.181934	862.684251	 71.954489	-636.184040	728.861084	1608.788777	-617.509697	725.115474	1566.947069	-287.382568	798.365187	1543.470503	-437.301059	664.821872	1616.611999	-461.538002	687.189365	1447.833035	-204.965578	617.435785	1368.070002	-222.963853	667.589341	1330.708823	-178.124566	672.165682	1233.831223	-161.726999	631.018506	1211.893242	-233.539832	651.019892	1560.101308	-719.047803	562.566595	1517.469529	-717.264062	586.040363	1489.209553	-791.628383	547.213241	1418.348730	-841.575209	480.882523	1414.210312	-797.652849	746.803063	1220.368738	-193.839695	893.896662	1307.004397	-310.337809	900.175848	1235.193008	-308.294243	602.085416	1315.975111	-793.396729	691.562401	1261.143852	-674.820230	641.025305	1217.983777	-691.355274	777.707053	1047.548555	-332.858254	780.744128	1076.936369	-588.635924	
328	  3.280000	599.851332	1144.666369	-503.881661	604.336931	1139.407568	-419.178273	687.247512	921.944982	-284.200451	706.442705	777.806873	-300.335980	601.890025	696.007917	-316.018755	735.161012	961.601553	-655.040648	826.635085	860.401860	-632.213371	772.591097	709.458524	-628.530194	558.456516	443.260286	-365.920231	463.287141	386.774941	-317.810232	438.456934	283.344391	-373.480545	847.146601	483.799093	-575.179990	785.718097	410.446134	-643.095608	821.750866	278.841360	-573.801306	272.120826	268.798156	-409.116438	402.849318	 79.794580	-382.249131	347.538375	 84.415452	-304.900668	690.367526	140.118315	-557.171019	919.532112	113.022517	-559.281835	886.757932	 72.828681	-634.761909	728.143693	1610.073718	-619.137146	725.950932	1569.142872	-289.454334	798.483189	1545.568399	-439.675688	665.051859	1617.928191	-463.224815	687.177088	1450.426681	-206.891148	616.788523	1371.683812	-225.058145	666.147330	1333.875465	-179.674997	669.913024	1236.426534	-163.215580	628.649131	1215.130424	-235.217487	649.859106	1561.420893	-720.440520	561.452915	1518.729418	-718.587835	584.648025	1490.451488	-792.915470	545.898203	1419.355826	-842.787102	479.941721	1414.911580	-798.547787	744.353068	1222.291886	-195.314367	892.362089	1307.607803	-311.921546	897.847606	1235.701646	-310.281181	602.071087	1317.893948	-794.624035	692.683699	1264.141127	-676.270166	642.564570	1220.529945	-692.478866	779.413066	1049.641442	-335.665861	781.420281	1079.177633	-591.415244	
329	  3.290000	600.585558	1145.549671	-503.983657	605.318425	1140.827569	-419.161302	690.778809	921.995416	-285.099249	710.518337	777.722680	-302.924626	606.486956	695.639047	-315.982984	732.792244	960.836423	-656.509000	823.129090	858.013925	-635.085638	767.781962	708.013180	-629.030015	558.234386	443.628525	-365.497110	461.273251	390.637192	-317.264703	432.444784	288.291567	-372.608134	846.776805	483.712233	-574.971416	788.870035	408.295028	-643.388152	831.073376	278.188625	-574.426432	266.459762	280.148880	-408.120606	390.521623	 86.121749	-381.677589	334.534123	 91.937159	-304.535144	705.658049	134.079954	-559.152928	935.604472	115.634090	-557.955347	905.556661	 74.162618	-634.168689	727.554504	1610.192546	-620.809475	726.602403	1570.151401	-291.378120	798.622165	1546.607012	-441.672379	665.219704	1618.290170	-465.122949	686.963794	1452.032077	-208.527831	615.826917	1374.108692	-227.106283	664.277556	1335.760903	-181.282552	666.950147	1237.846966	-164.912858	625.597332	1217.324506	-236.935343	649.117655	1561.374078	-722.060110	560.814129	1518.362519	-720.274729	583.972060	1490.083977	-794.531742	545.508694	1418.674899	-844.278921	479.857842	1413.802512	-799.882052	741.192920	1223.024668	-196.419498	890.604095	1306.273606	-313.324919	895.061536	1234.257576	-312.019089	603.038199	1318.263312	-795.884495	694.459430	1265.828604	-677.451144	644.970248	1221.642625	-693.533445	780.865025	1050.948860	-338.008376	781.631234	1080.079704	-593.622084	
330	  3.300000	600.819842	1145.150697	-504.279524	605.900907	1141.053199	-419.354696	694.612519	920.870649	-286.033010	715.571252	776.498314	-305.645900	612.493719	693.611538	-316.045286	730.569705	959.018829	-657.665067	820.077486	854.849544	-637.862930	764.024928	705.831723	-629.588560	559.385270	442.840888	-365.419036	460.452070	393.694897	-316.932869	426.958036	292.990293	-371.960733	846.430658	483.086402	-574.462969	791.511616	406.118527	-643.283143	838.030982	277.460422	-574.404209	260.637753	290.903856	-406.576202	379.007147	 92.860568	-381.589268	323.240404	 99.969633	-303.821902	716.954323	130.173372	-559.629596	947.003538	116.239073	-557.232169	918.334633	 74.570392	-633.999163	727.150413	1609.147919	-622.544142	727.069884	1569.918193	-293.163815	798.721746	1546.509020	-443.404016	665.374439	1617.527558	-466.949159	686.456436	1452.448071	-209.954348	614.478466	1375.307921	-229.216149	661.928020	1336.343379	-182.946953	663.357970	1238.160857	-166.798334	622.000767	1218.418220	-238.717861	648.808298	1559.950949	-723.862806	560.674009	1516.247141	-722.097930	584.032919	1488.114955	-796.427221	546.063045	1416.316733	-846.075612	480.592454	1410.859021	-801.585952	737.401876	1222.305031	-197.673789	888.584608	1302.996306	-314.588103	891.730309	1230.898784	-313.547274	604.935840	1317.035889	-797.197343	696.880254	1266.201402	-678.403936	648.140376	1221.279182	-694.487545	782.067825	1051.477730	-339.822733	781.307725	1079.327825	-594.851022	
